<?xml version="1.0" standalone="no"?>
<!DOCTYPE svg PUBLIC "-//W3C//DTD SVG 20010904//EN"
 "http://www.w3.org/TR/2001/REC-SVG-20010904/DTD/svg10.dtd">
<svg version="1.0" xmlns="http://www.w3.org/2000/svg"
 width="512.000000pt" height="512.000000pt" viewBox="0 0 512.000000 512.000000"
 preserveAspectRatio="xMidYMid meet">

<g transform="translate(0.000000,512.000000) scale(0.100000,-0.100000)"
fill="#000000" stroke="none">
<path d="M2417 4945 c-164 -45 -346 -198 -487 -407 -67 -101 -182 -326 -229
-451 l-29 -77 21 -5 c129 -29 425 -62 635 -71 l152 -7 0 516 c0 285 -3 517 -7
516 -5 0 -30 -7 -56 -14z"/>
<path d="M2640 4444 l0 -517 153 7 c167 7 382 29 522 52 152 24 139 9 95 122
-102 263 -233 476 -384 628 -125 124 -236 193 -353 219 l-33 7 0 -518z"/>
<path d="M1940 4885 c-387 -107 -718 -291 -1014 -561 l-66 -62 92 -40 c171
-75 551 -192 562 -174 2 4 24 60 50 125 97 249 247 500 391 655 42 45 75 82
73 81 -1 0 -41 -11 -88 -24z"/>
<path d="M3155 4839 c162 -172 323 -443 415 -699 18 -50 35 -92 39 -94 8 -5
131 27 271 70 102 32 228 79 344 129 l40 17 -55 49 c-315 287 -644 471 -1029
573 l-91 25 66 -70z"/>
<path d="M683 4061 c-101 -125 -190 -267 -273 -436 -143 -289 -220 -570 -245
-897 l-7 -88 560 0 559 0 7 38 c3 20 6 69 6 109 0 244 58 647 137 956 19 76
33 140 31 142 -1 1 -64 19 -138 40 -157 43 -343 109 -480 169 l-95 43 -62 -76z"/>
<path d="M4255 4083 c-128 -55 -364 -136 -508 -174 -79 -20 -88 -25 -84 -43 3
-12 16 -66 31 -121 75 -290 135 -714 136 -955 0 -41 3 -92 6 -112 l7 -38 559
0 560 0 -7 88 c-26 329 -106 621 -250 907 -84 168 -176 313 -272 430 l-58 70
-120 -52z"/>
<path d="M1606 3798 c-89 -312 -142 -663 -159 -1065 l-4 -93 518 0 519 0 0
563 0 564 -162 7 c-183 7 -373 26 -556 56 -67 11 -127 20 -132 20 -4 0 -15
-24 -24 -52z"/>
<path d="M3345 3829 c-163 -28 -362 -48 -544 -55 l-161 -7 0 -564 0 -563 519
0 519 0 -4 88 c-21 424 -71 762 -159 1070 -18 60 -7 59 -170 31z"/>
<path d="M165 2393 c25 -328 102 -609 245 -898 83 -168 171 -309 274 -436 l61
-76 95 43 c137 60 323 126 480 169 74 21 137 39 138 40 2 2 -12 66 -31 142
-79 309 -137 712 -137 956 0 40 -3 89 -6 110 l-7 37 -559 0 -560 0 7 -87z"/>
<path d="M1446 2393 c15 -312 44 -556 94 -798 29 -139 74 -313 83 -322 3 -2
61 5 129 16 178 29 390 51 571 58 l157 6 0 564 0 563 -519 0 -519 0 4 -87z"/>
<path d="M2640 1917 l0 -564 163 -7 c183 -7 371 -26 561 -57 106 -17 130 -18
137 -7 12 19 85 325 103 433 37 217 57 408 70 678 l4 87 -519 0 -519 0 0 -563z"/>
<path d="M3836 2443 c-3 -21 -6 -72 -6 -113 0 -236 -58 -642 -132 -935 -17
-66 -32 -129 -35 -140 -4 -19 7 -24 119 -54 166 -46 324 -101 472 -164 l122
-53 61 75 c102 127 190 268 273 436 143 289 220 570 245 898 l7 87 -560 0
-559 0 -7 -37z"/>
<path d="M2180 1179 c-224 -18 -490 -58 -497 -75 -7 -18 59 -178 128 -314 135
-267 300 -460 479 -562 43 -25 103 -48 163 -62 l27 -6 0 515 0 515 -97 -1
c-54 -1 -145 -6 -203 -10z"/>
<path d="M2640 677 l0 -517 33 7 c113 21 227 92 353 217 151 152 282 365 384
628 44 113 57 98 -95 122 -142 24 -362 46 -525 53 l-150 6 0 -516z"/>
<path d="M1465 1067 c-155 -36 -427 -127 -548 -182 l-58 -27 67 -61 c297 -272
636 -459 1017 -562 l88 -24 -77 82 c-143 154 -289 398 -389 652 -26 66 -50
123 -54 126 -3 3 -24 2 -46 -4z"/>
<path d="M3600 1057 c-5 -12 -26 -65 -46 -117 -98 -255 -243 -493 -399 -659
l-66 -70 88 24 c379 101 717 287 1013 557 71 65 73 67 49 77 -13 5 -60 25
-104 43 -92 40 -259 96 -390 131 -142 39 -135 38 -145 14z"/>
</g>
</svg>
