<?xml version="1.0" encoding="UTF-8"?>
<svg xmlns="http://www.w3.org/2000/svg" xmlns:xlink="http://www.w3.org/1999/xlink" width="1920px" height="1080px" viewBox="0 0 1920 1080" version="1.1">
<g id="surface1">
<path style=" stroke:none;fill-rule:nonzero;fill:rgb(100%,98.039216%,44.705882%);fill-opacity:1;" d="M 1175.308594 64.003906 C 1129.398438 178.9375 1138.082031 250.996094 1201.347656 280.179688 C 1296.246094 323.953125 1521.902344 341.460938 1616.226562 436.417969 C 1710.546875 531.371094 1998.140625 457.964844 2047.328125 294.992188 C 2096.511719 132.019531 2185.070312 -119.171875 1718.09375 -119.171875 C 1406.769531 -119.171875 1225.847656 -58.113281 1175.308594 64.003906 Z M 1175.308594 64.003906 "/>
<path style=" stroke:none;fill-rule:nonzero;fill:rgb(39.607843%,12.54902%,37.647059%);fill-opacity:1;" d="M 499.765625 290.933594 C 530.875 612.75 655.277344 814.511719 872.957031 896.222656 C 1199.484375 1018.789062 1855.636719 1067.8125 2251.640625 1333.691406 C 2647.636719 1599.5625 3350.9375 1394.023438 3262.277344 937.703125 C 3173.617188 481.382812 3072.660156 -221.957031 1765.121094 -221.957031 C 893.421875 -221.957031 471.644531 -51 499.769531 290.933594 Z M 499.765625 290.933594 "/>
<path style=" stroke:none;fill-rule:nonzero;fill:rgb(37.647059%,18.431373%,41.568627%);fill-opacity:1;" d="M 550.429688 272.023438 C 565.011719 576.597656 673.433594 767.550781 875.679688 844.886719 C 1179.054688 960.886719 1797.792969 1007.285156 2160.304688 1258.917969 C 2522.808594 1510.546875 3197.921875 1316.019531 3135.085938 884.144531 C 3072.246094 452.269531 3009.175781 -213.394531 1771.683594 -213.394531 C 946.683594 -213.394531 539.605469 -51.589844 550.433594 272.023438 Z M 550.429688 272.023438 "/>
<path style=" stroke:none;fill-rule:nonzero;fill:rgb(36.078431%,24.705882%,45.098039%);fill-opacity:1;" d="M 602.378906 253.109375 C 602.742188 540.445312 696.625 720.59375 884.023438 793.546875 C 1165.121094 902.980469 1746.796875 946.753906 2077.722656 1184.144531 C 2408.636719 1421.53125 3054.09375 1238.015625 3013.808594 830.585938 C 2973.523438 423.15625 2943.300781 -204.828125 1775.855469 -204.828125 C 997.554688 -204.828125 606.402344 -52.183594 602.382812 253.109375 Z M 602.378906 253.109375 "/>
<path style=" stroke:none;fill-rule:nonzero;fill:rgb(34.117647%,30.980392%,48.627451%);fill-opacity:1;" d="M 655.503906 234.199219 C 643.753906 504.296875 724.425781 673.632812 897.507812 742.210938 C 1157.136719 845.078125 1702.070312 886.226562 2003.152344 1109.371094 C 2304.222656 1332.515625 2918.675781 1160.011719 2897.949219 777.027344 C 2877.226562 394.042969 2875.238281 -196.261719 1777.839844 -196.261719 C 1046.234375 -196.261719 672.132812 -52.777344 655.507812 234.199219 Z M 655.503906 234.199219 "/>
<path style=" stroke:none;fill-rule:nonzero;fill:rgb(32.54902%,36.862745%,52.156863%);fill-opacity:1;" d="M 709.710938 215.289062 C 687.796875 468.144531 756.472656 626.671875 915.738281 690.875 C 1154.636719 787.175781 1663.125 825.695312 1935.96875 1034.601562 C 2208.804688 1243.5 2791.007812 1082.003906 2787.085938 723.464844 C 2783.160156 364.929688 2805.160156 -187.695312 1777.808594 -187.695312 C 1092.902344 -187.695312 736.875 -53.371094 709.714844 215.289062 Z M 709.710938 215.289062 "/>
<path style=" stroke:none;fill-rule:nonzero;fill:rgb(30.980392%,43.137255%,56.078431%);fill-opacity:1;" d="M 764.925781 196.378906 C 734.652344 431.992188 792.46875 579.714844 938.371094 639.539062 C 1157.230469 729.273438 1629.542969 765.167969 1875.644531 959.828125 C 2121.738281 1154.484375 2670.539062 1004 2680.855469 669.90625 C 2691.171875 335.816406 2733.207031 -179.132812 1775.902344 -179.132812 C 1137.695312 -179.132812 800.707031 -53.964844 764.929688 196.378906 Z M 764.925781 196.378906 "/>
<path style=" stroke:none;fill-rule:nonzero;fill:rgb(29.019608%,49.411765%,59.607843%);fill-opacity:1;" d="M 821.082031 177.46875 C 784.136719 395.84375 832.152344 532.753906 965.125 588.199219 C 1164.585938 671.371094 1600.988281 704.636719 1821.738281 885.054688 C 2042.484375 1065.46875 2556.804688 925.996094 2578.964844 616.347656 C 2601.125 306.703125 2659.5 -170.566406 1772.242188 -170.566406 C 1180.734375 -170.566406 863.6875 -54.558594 821.085938 177.46875 Z M 821.082031 177.46875 "/>
<path style=" stroke:none;fill-rule:nonzero;fill:rgb(27.45098%,55.294118%,63.137255%);fill-opacity:1;" d="M 878.125 158.558594 C 836.101562 359.691406 875.316406 485.792969 995.757812 536.863281 C 1176.425781 613.46875 1577.160156 644.109375 1773.878906 810.28125 C 1970.59375 976.453125 2449.414062 847.988281 2481.160156 562.789062 C 2512.90625 277.589844 2584.144531 -162 1766.933594 -162 C 1222.121094 -162 925.859375 -55.148438 878.125 158.558594 Z M 878.125 158.558594 "/>
<path style=" stroke:none;fill-rule:nonzero;fill:rgb(25.490196%,61.568627%,66.666667%);fill-opacity:1;" d="M 936.007812 139.644531 C 890.417969 323.542969 921.777344 438.835938 1030.074219 485.527344 C 1192.527344 555.5625 1557.820312 583.578125 1731.753906 735.507812 C 1905.6875 887.433594 2348.042969 769.984375 2387.234375 509.230469 C 2426.421875 248.472656 2507.222656 -153.433594 1760.058594 -153.433594 C 1261.945312 -153.433594 987.265625 -55.742188 936.007812 139.644531 Z M 936.007812 139.644531 "/>
<path style=" stroke:none;fill-rule:nonzero;fill:rgb(23.921569%,67.843137%,70.588235%);fill-opacity:1;" d="M 994.695312 120.734375 C 946.980469 287.390625 971.390625 391.875 1067.910156 434.1875 C 1212.695312 497.660156 1542.769531 523.050781 1695.113281 660.734375 C 1847.453125 798.417969 2252.421875 691.980469 2297.011719 455.671875 C 2341.597656 219.359375 2428.804688 -144.867188 1751.6875 -144.867188 C 1300.269531 -144.867188 1047.945312 -56.335938 994.695312 120.734375 Z M 994.695312 120.734375 "/>
<path style=" stroke:none;fill-rule:nonzero;fill:rgb(21.960784%,73.72549%,74.117647%);fill-opacity:1;" d="M 1054.152344 101.824219 C 1005.707031 251.238281 1024.035156 344.914062 1109.132812 382.851562 C 1236.78125 439.757812 1531.84375 462.519531 1663.742188 585.960938 C 1795.640625 709.402344 2162.339844 613.976562 2210.351562 402.109375 C 2258.367188 190.246094 2348.945312 -136.304688 1741.875 -136.304688 C 1337.15625 -136.304688 1107.921875 -56.929688 1054.15625 101.824219 Z M 1054.152344 101.824219 "/>
<path style=" stroke:none;fill-rule:nonzero;fill:rgb(20.392157%,80%,77.647059%);fill-opacity:1;" d="M 1114.363281 82.914062 C 1066.53125 215.089844 1079.621094 297.957031 1153.636719 331.515625 C 1264.660156 381.855469 1524.917969 401.988281 1637.488281 511.191406 C 1750.050781 620.386719 2077.621094 535.96875 2127.152344 348.550781 C 2176.683594 161.132812 2267.6875 -127.738281 1730.664062 -127.738281 C 1372.644531 -127.738281 1167.214844 -57.523438 1114.367188 82.914062 Z M 1114.363281 82.914062 "/>
</g>
</svg>
